<svg xmlns="http://www.w3.org/2000/svg" xmlns:xlink="http://www.w3.org/1999/xlink" version="1.1" id="Layer_1" preserveAspectRatio="xMidYMid meet" viewBox="252.6 231.68 464.37 261.06">
<g>
	<g>
		<g>
			<path d="M676.51,310.94c-2.37,1.52-5.44,3.54-9.18,5.76c-3.75,2.21-8.21,4.59-13.35,6.63c-10.37,4.15-22.91,6.05-35.54,7.74     c-6.33,0.85-12.64,1.76-18.84,2.95c-6.2,1.16-12.27,2.51-18.04,3.91c-11.53,2.79-21.85,5.82-29.64,8.09     c-1.49,0.47-2.98,0.88-4.27,1.36c-1.32,0.49-2.57,1.08-3.81,1.69c-1.24,0.61-2.47,1.23-3.75,1.72c-1.28,0.49-2.6,0.83-3.88,0.99     c-1.27,0.16-2.56,0.16-3.67,0.11c-1.14-0.04-2.26-0.1-3.34-0.22c-1.08-0.13-2.12-0.32-3.1-0.58c-1.02-0.25-1.96-0.71-2.75-1.15     c-1.35-0.76-1.47-0.86-0.84-0.52c0.35,0.19,0.93,0.52,1.78,0.93c0.43,0.2,0.94,0.41,1.54,0.58c0.57,0.16,1.2,0.3,1.89,0.42     c1.38,0.25,2.99,0.37,4.76,0.42c1.74,0.07,3.88,0.06,6.03-0.57c2.18-0.58,4.27-1.72,6.39-2.71c1.07-0.5,2.17-0.96,3.32-1.35     c1.13-0.38,2.44-0.73,3.7-1.11c9.1-2.76,19.88-5.93,32.69-8.98c-8.06,1.6-15.92,3.42-23.14,5.23c-3.61,0.9-7.06,1.79-10.29,2.65     c-1.61,0.44-3.19,0.8-4.67,1.34c-1.48,0.52-2.85,1.15-4.14,1.72c-1.77,0.9-3.55,1.72-5.45,2.1c-1.89,0.41-3.87,0.33-5.87,0.26     c-1.96-0.09-4-0.32-5.76-0.98c-0.9-0.37-1.73-0.84-2.69-1.37c-0.97-0.52-1.96-1.04-3.04-1.3c-0.38-0.1-0.8-0.14-1.21-0.15     c-1.72-0.03-3.21,1.01-4.32,2.24c-0.57,0.61-1.09,1.3-1.56,1.97l-1.31,1.93c-0.84,1.26-1.75,2.54-2.7,3.48     c-0.97,0.98-2.2,1.75-3.57,1.93c-1.36,0.16-2.79-0.07-3.94-0.84c-1.16-0.76-1.96-1.89-2.63-3.1c-0.72-1.29-1.34-2.69-2.1-4.08     c-0.38-0.69-0.81-1.38-1.31-2.04c-0.24-0.33-0.55-0.63-0.82-0.95l-0.91-0.85c-1.28-1.1-2.77-2.09-4.47-2.3     c-0.84-0.11-1.71-0.01-2.51,0.27c-0.8,0.29-1.55,0.71-2.25,1.19c-0.68,0.5-1.38,1.06-1.94,1.59l-1.68,1.58     c-1.11,1.06-2.22,2.14-3.26,3.33c-1.03,1.19-1.99,2.49-2.74,3.91c-0.78,1.43-1.29,2.95-1.74,4.42c-0.88,2.95-1.59,5.84-3.33,8.01     l1.51-0.21c-0.36-0.3-0.7-0.75-1.06-1.66c-0.34-0.85-0.6-1.76-0.84-2.66c-0.48-1.81-0.92-3.54-1.41-5.07     c-0.5-1.53-0.94-2.97-1.8-4.24c-0.24-0.3-0.49-0.61-0.87-0.79c-0.37-0.19-0.83-0.21-1.22-0.09c-0.78,0.26-1.38,0.78-1.94,1.33     c-2.19,2.18-4,5.21-5.46,8.57c-0.37,0.84-0.71,1.7-1.04,2.58l-0.48,1.32c-0.16,0.43-0.33,0.92-0.46,1.23     c-0.56,1.41-1.24,2.76-2.02,4.09c-0.6,1.03-1.38,2.23-2.18,3.39c-0.67,1-1.46,2.03-2.19,3.16c-0.7,1.16-1.24,2.47-2.07,3.67     c-0.42,0.59-0.92,1.16-1.59,1.52c-0.66,0.37-1.47,0.44-2.22,0.25c-0.57-0.14-1.15-0.37-1.59-0.78c-0.45-0.41-0.72-0.99-0.84-1.59     c-0.23-1.21-0.05-2.45-0.01-3.67c0.05-1.22,0.06-2.43,0.07-3.61c0.01-1.3,0.01-2.59,0.01-3.85c0-0.82,0.01-1.63,0.01-2.43     c0-0.91,0.02-1.82,0.05-2.72c0.07-1.81,0.06-3.54-0.02-4.98c-0.1-1.45-0.26-2.76-0.74-3.93c-0.23-0.58-0.53-1.13-0.9-1.63     c-0.17-0.26-0.38-0.49-0.57-0.73l-0.32-0.33c-0.05-0.05-0.1-0.12-0.16-0.15l-0.19-0.05c-0.43,0.02-0.77,0.04-1.06,0.05     c-0.29,0.04-0.53,0.07-0.76,0.1c0.59-0.11,1.22-0.15,1.84-0.18c0.09,0.04,0.19,0.02,0.26,0.1l0.22,0.22     c0.15,0.14,0.29,0.29,0.41,0.45c0.27,0.3,0.5,0.63,0.71,0.95c0.42,0.65,0.72,1.34,0.92,2.05c0.41,1.43,0.51,2.93,0.57,4.63     c0.07,1.71-0.04,3.62-0.04,5.42l0.01,4.64c0,2.13,0.03,4.18-0.07,6.28c-0.04,1.04-0.16,2.11,0.12,3.14     c0.14,0.51,0.42,0.98,0.83,1.31c0.41,0.34,0.91,0.52,1.42,0.64c0.87,0.21,1.82,0.03,2.52-0.53c0.7-0.56,1.2-1.32,1.64-2.09     c0.44-0.78,0.82-1.59,1.26-2.37c0.45-0.78,1-1.49,1.5-2.24l0.77-1.12l0.97-1.48c0.63-0.99,1.22-1.99,1.74-3.01     c0.53-1.02,0.99-2.05,1.39-3.13c0.5-1.42,1-2.87,1.57-4.24c1.15-2.74,2.51-5.32,4.1-7.37c0.8-1.02,1.61-1.92,2.56-2.67     c0.47-0.37,1-0.7,1.64-0.83c0.32-0.08,0.67-0.03,0.98,0.07c0.3,0.14,0.56,0.31,0.76,0.53c0.82,0.86,1.25,1.89,1.72,2.96     c0.45,1.09,0.88,2.25,1.29,3.6c0.42,1.35,0.78,2.88,1.21,4.38c0.22,0.73,0.46,1.53,0.76,2.14l0.11,0.24     c0.03,0.07,0.06,0.09,0.09,0.14c0.06,0.08,0.11,0.19,0.16,0.24l0.15,0.19c0.05,0.03,0.09,0.07,0.13,0.12l-2.42,0.34     c1.55-1.95,2.26-4.58,3.09-7.44c0.42-1.43,0.9-2.92,1.62-4.38c0.71-1.45,1.61-2.79,2.6-3.99c0.99-1.21,2.06-2.3,3.13-3.34     c1.11-1.05,2.02-1.98,3.37-3.12c1.36-1.12,2.93-2.11,4.69-2.35c1.76-0.27,3.53,0.36,4.99,1.35c0.74,0.48,1.44,1.08,2.04,1.65     c0.63,0.58,1.2,1.26,1.66,1.93c0.94,1.36,1.58,2.75,2.23,4.03c0.32,0.63,0.65,1.28,0.97,1.83c0.3,0.5,0.6,0.98,0.98,1.42     c0.73,0.88,1.74,1.56,2.88,1.76c1.13,0.2,2.34,0.12,3.36-0.45c0.51-0.27,0.97-0.62,1.4-1.01c0.21-0.2,0.41-0.41,0.6-0.62     l0.28-0.33c0.11-0.12,0.21-0.26,0.32-0.39c0.84-1.06,1.61-2.28,2.44-3.51l0.67-0.96c0.26-0.36,0.52-0.71,0.8-1.05     c0.55-0.68,1.16-1.31,1.85-1.84c-0.71,0.52-1.33,1.15-1.91,1.83c-0.29,0.34-0.57,0.68-0.84,1.04l-0.7,0.94     c-0.79,1.16-1.52,2.28-2.3,3.29c-0.41,0.53-0.74,0.9-1.11,1.27c-0.37,0.37-0.78,0.71-1.23,0.98c-0.89,0.56-1.96,0.81-3,0.68     c-1.04-0.07-2.05-0.5-2.81-1.21c-0.39-0.34-0.71-0.76-1-1.18c-0.3-0.44-0.53-0.84-0.85-1.45c-0.6-1.14-1.16-2.4-1.88-3.69     c-0.35-0.64-0.75-1.31-1.23-1.95c-0.46-0.64-1.06-1.28-1.66-1.82c-1.23-1.11-2.68-2.2-4.32-2.66c-1.64-0.51-3.45-0.27-4.98,0.49     c-0.78,0.37-1.5,0.86-2.19,1.38c-0.35,0.26-0.66,0.53-0.98,0.8l-0.82,0.75c-1.98,1.86-4.12,3.77-5.93,6.19     c-0.9,1.21-1.71,2.54-2.32,3.96c-0.61,1.41-1.04,2.81-1.44,4.13c-0.77,2.66-1.51,5-2.89,6.72l3.13-0.45     c-0.03-0.06-0.15-0.13-0.28-0.37c-0.04-0.06-0.06-0.08-0.11-0.18l-0.16-0.35c-0.11-0.22-0.2-0.5-0.3-0.77     c-0.37-1.1-0.66-2.27-0.95-3.4c-0.57-2.3-1.24-4.21-1.94-5.75c-0.35-0.78-0.7-1.5-1.12-2.17c-0.43-0.66-0.88-1.34-1.76-1.73     c-0.46-0.17-0.98-0.13-1.41,0c-0.22,0.06-0.43,0.14-0.62,0.25c-0.2,0.09-0.38,0.2-0.56,0.32c-0.72,0.46-1.35,1.04-1.97,1.67     c-1.78,1.81-3.36,4.41-4.72,7.28c-0.68,1.44-1.3,2.98-1.86,4.56l-0.43,1.18c-0.14,0.37-0.23,0.56-0.34,0.85     c-0.22,0.53-0.47,1.05-0.73,1.58c0.25-0.51,0.48-1.03,0.7-1.55l0.32-0.82l0.42-1.18c0.56-1.57,1.17-3.12,1.85-4.57     c1.36-2.89,2.97-5.52,4.78-7.34c0.62-0.64,1.25-1.22,1.97-1.69c0.18-0.12,0.36-0.24,0.56-0.33c0.19-0.11,0.39-0.19,0.62-0.26     c0.43-0.14,0.95-0.19,1.41-0.03c0.88,0.37,1.34,1.03,1.78,1.66c0.42,0.65,0.79,1.34,1.15,2.1c0.71,1.5,1.43,3.34,2.04,5.68     c0.31,1.14,0.61,2.34,1,3.47c0.1,0.28,0.2,0.58,0.31,0.8l0.16,0.36c0.06,0.13,0.07,0.12,0.11,0.18c0.06,0.11,0.12,0.17,0.17,0.22     c0.02,0.04,0.04,0.06,0.05,0.05l0.01,0.01l0,0.01l-0.07,0.1l-3.46,0.41c1.42-1.82,2.08-4.42,2.95-7.51     c0.44-1.53,0.99-3.22,1.86-4.85c0.84-1.62,1.93-3.09,3.08-4.42c0.78-0.88,1.6-1.7,2.43-2.5c0.85-0.81,1.61-1.52,2.52-2.35     c0.94-0.85,2.26-1.9,3.6-2.55c0.68-0.35,1.4-0.57,2.14-0.74c0.74-0.11,1.51-0.19,2.26-0.05c1.5,0.2,2.9,0.89,4.11,1.79     c0.6,0.47,1.2,0.94,1.69,1.44c0.26,0.24,0.51,0.49,0.75,0.77c0.24,0.27,0.49,0.54,0.68,0.82c0.84,1.11,1.41,2.22,1.93,3.25     c0.52,1.03,0.97,2.02,1.45,2.86c0.1,0.19,0.18,0.34,0.26,0.46l0.23,0.4c0.18,0.24,0.32,0.51,0.53,0.74     c0.36,0.49,0.83,0.87,1.33,1.21c0.53,0.28,1.09,0.51,1.69,0.56c0.59,0.11,1.2,0.09,1.79-0.05c1.18-0.28,2.18-1.08,3.01-1.97     c0.99-1.08,1.91-2.42,2.91-3.8l0.68-0.96c0.27-0.37,0.54-0.72,0.82-1.06c0.57-0.69,1.19-1.33,1.89-1.86     c0.7-0.53,1.49-0.95,2.34-1.16c0.85-0.21,1.75-0.21,2.61-0.02c0.79,0.18,1.55,0.47,2.28,0.83c0.37,0.18,0.73,0.37,1.09,0.56     l0.96,0.53c0.55,0.27,1.09,0.53,1.62,0.73c0.26,0.1,0.52,0.18,0.77,0.25c0.29,0.07,0.6,0.14,0.91,0.2     c-0.04-0.01-0.12-0.04-0.15-0.05c-0.63-0.23-1.24-0.46-2.28-1.1c-0.88-0.48-2.83-1.98-5.19-2.59c-1.14-0.26-2.46-0.27-3.72,0.23     c-1.26,0.47-2.42,1.36-3.46,2.49c-0.51,0.55-1.04,1.22-1.49,1.82c-0.37,0.51-0.75,1.03-1.13,1.56c-0.73,1.01-1.49,2.06-2.22,2.85     c-0.57,0.61-1.26,1.18-2.09,1.48c-0.82,0.32-1.77,0.24-2.61-0.03c-0.86-0.28-1.54-0.98-2.01-1.75c-0.13-0.19-0.23-0.4-0.34-0.6     l-0.46-0.9c-0.34-0.73-0.69-1.46-1.04-2.2c-0.78-1.55-1.67-3.45-3.45-5.17c-0.42-0.4-0.82-0.8-1.34-1.19     c-0.48-0.41-1-0.78-1.54-1.11c-1.08-0.65-2.26-1.14-3.51-1.36c-2.54-0.44-5.13,0.51-7.25,2.1c-0.56,0.38-1.03,0.78-1.51,1.19     l-1.09,0.97c-0.67,0.62-1.35,1.24-2.02,1.86c-1.38,1.3-2.81,2.75-4.1,4.48c-1.29,1.69-2.4,3.83-3.09,5.79     c-0.71,1.96-1.16,3.72-1.69,5.18c-0.52,1.47-1.09,2.57-1.79,3.42l4.88,0.7c0.09-0.15,0.19-0.28,0.31-0.4     c0.12-0.13,0.21-0.18,0.4-0.39c0.17-0.17,0.35-0.32,0.54-0.46l0.14-0.1l0,0.01l-0.01-0.03c0.04,0.1-0.24-0.51-0.41-1.07     c-0.39-1.22-0.67-2.54-0.98-3.82c-0.58-2.61-1.37-4.81-2.22-6.26c-0.85-1.49-1.63-2.52-2.62-3.39c-0.5-0.41-1.12-0.85-2.07-1     c-0.95-0.09-1.73,0.13-2.4,0.41c-1.35,0.56-2.54,1.42-3.74,2.62c-1.19,1.2-2.29,2.77-3.29,4.46c-1.01,1.69-1.91,3.55-2.69,5.47     c-0.39,0.96-0.76,1.94-1.1,2.9l-0.26,0.72l-0.13,0.36l-0.08,0.19c-0.1,0.23-0.18,0.47-0.29,0.7c-0.8,1.85-1.8,3.53-2.88,5.17     c-0.23,0.35-0.46,0.68-0.69,1.02c-0.1,0.13-0.19,0.26-0.28,0.39c-0.18,0.25-0.35,0.49-0.51,0.72c-0.56,0.95-0.89,1.8-1.41,2.2     c-0.31,0.26-0.72,0.38-1.11,0.36c-0.47,0-0.96-0.22-1.14-0.62c-0.19-0.38-0.2-0.8-0.24-1.24c-0.08-0.9-0.23-1.85-0.38-3.12     c-0.01-0.11-0.02-0.13-0.03-0.31l-0.03-0.53l-0.06-1.05l-0.06-1.05l-0.06-1.63c-0.1-2.16,0.03-4.46-0.16-6.49     c-0.21-1.99-0.56-3.55-1.17-5.01c-0.31-0.73-0.7-1.43-1.23-2.1c-0.26-0.34-0.54-0.68-0.86-1.01c-0.15-0.17-0.31-0.34-0.49-0.5     c-0.17-0.17-0.33-0.35-0.54-0.41c-2.4,0.2-4.59,0.52-6.67,1.66c-1.43,0.72-2.73,1.67-3.94,2.78c-1.21,1.1-2.34,2.34-3.36,3.68     c-0.52,0.65-1,1.34-1.48,2.01c-0.38,0.56-0.76,1.11-1.12,1.65c-0.28,0.43-0.56,0.86-0.84,1.28c-0.29,0.45-0.57,0.89-0.84,1.34     c-0.08,0.44-1.14,2.23-2.19,4.04c-2.96,4.45-5.93,8.9-8.72,13.1c-1.38,2.09-2.71,4.12-3.95,6.06c-0.62,0.98-1.21,1.91-1.78,2.87     c-0.57,0.97-1.13,1.91-1.6,2.85c-1.45,2.55-4.77,7.04-7.61,11.15c-2.84,4.1-5.29,7.69-5.3,8.36c-0.03,2.48-0.04,2.81-0.8,4.02     c-0.78,1.19-2.25,3.33-5.48,9.04c-0.42,0.7-1.03,2.21-1.85,4.01c-0.81,1.78-1.72,3.73-2.59,5.11c-3.02,4.61-4.8,7.65-6.67,10.88     c-1.88,3.22-3.78,6.67-7.34,11.72c-2.59,3.79-4.91,6.66-7.05,9.04c-0.56,0.63-1.1,1.24-1.63,1.82c-0.52,0.59-1.01,1.17-1.5,1.73     c-0.95,1.08-1.85,2.11-2.74,3.12c-1.78,1.98-3.51,3.84-5.53,5.75c-1.01,0.95-2.09,1.9-3.3,2.77c-1.2,0.85-2.53,1.69-3.94,2.08     c-0.35,0.08-1.7,0.48-3.44-0.2c-0.87-0.33-1.89-1.01-2.82-1.91c-0.87-0.87-1.68-2.07-2.31-3.44c-1.3-2.75-2.08-5.95-2.72-8.36     c-0.33-1.21-0.61-2.21-0.8-2.91c-0.19-0.66-0.28-1.04-0.28-1.04c-0.98-4.8-1.22-9.32-1.34-13.57c-0.1-4.26-0.09-8.29-0.03-12.1     c0.19-7.66,0.86-14.77,2.54-22.55c0.43-9.15,2.23-19.71,4.64-30.29c2.37-10.59,5.3-21.22,7.59-30.75     c2.29-9.56,4.29-16.18,6.47-22.44c2.21-6.25,4.51-12.14,7.69-20.06c1.67-4.57,2.88-8.02,4.09-10.59c1.26-2.56,2.92-9.3,4.9-13.75     l0.09,1.34c0.63-1.5,1.95-4.45,2.63-5.93c0.67-1.48,0.69-1.02,0.71-0.58c0.04,0.9,0.09,1.78,1.45-0.71     c1.43-3.06,2.99-6.09,4.48-9.2c1.58-3.07,3.08-6.21,4.72-9.33c2.72-6.42,5.63-12.65,8.51-18.8c-0.05-0.48-0.06-1,0.22-1.94     c0.86-1.84,1.72-3.67,2.58-5.5c0.09-1.34-0.65-1.3-0.57-2.2c-1.43-0.8,1.53-9-0.79-8.01c-0.39,0.24-2.13,2.92-4.19,6.06     c-1.99,3.18-4.34,6.82-5.92,9.02c-0.79,0.98,0.09-1.82,0.18-3.18c-3.32,6.19-4.06,6.27-3.17,3.46c-0.82,1.44-1.65,2.88-1.65,2.88     c0.02-0.45,0.1-1.82,0.1-1.82c-4.49,7.73-9.13,16-13.31,24.45c-4.19,8.44-7.87,17.08-10.63,25.37     c-1.26,3.53-2.95,9.54-4.03,13.56c-0.52,2.01-2.34,6.21-2.87,7.79c-0.38,2.93,0.34,2.72,0.52,4.08     c-2.22,6.02-5.51,15.64-7.68,23.8c-2.2,8.1-3.54,14.64-2.44,14.49c-2.56,9.96-2.12,12.19-4.33,22.66     c-2.84,13.9-5.98,31.72-7.08,49.56c-0.16,2.44-0.2,4.86-0.32,7.26c-0.04,2.4-0.09,4.79-0.13,7.17     c-0.02,4.69-0.09,9.45,0.35,14.32c0.17,1.81,0.41,3.61,0.73,5.37c0.3,1.73,0.78,3.55,1.12,4.99c0.5,2.08,0.96,4.27,1.62,6.48     c0.66,2.2,1.47,4.46,2.84,6.62c0.32,0.54,0.73,1.06,1.13,1.58c0.44,0.5,0.89,1.01,1.36,1.42c0.9,0.89,2.02,1.65,3.2,2.31     c1.24,0.6,2.59,1.05,3.99,1.21c1.39,0.14,2.77,0.04,4.06-0.24c2.55-0.6,4.7-1.75,6.56-3.03c1.88-1.28,3.53-2.72,5.05-4.19     c3.05-2.95,5.67-6.12,8.19-9.08l0.93-1.07l0.96-1.07c0.66-0.75,1.35-1.49,1.99-2.26c1.31-1.52,2.57-3.06,3.8-4.61     c2.45-3.11,4.74-6.3,6.93-9.51c4.36-6.43,8.28-12.99,12.13-19.5c1.92-3.2,3.89-6.63,5.65-10c1.79-3.39,3.48-6.81,5.16-10.21     c3.36-6.8,6.69-13.57,10.67-19.97c1.04-1.63,2.08-3.27,3.12-4.92c1.04-1.67,2.09-3.34,3.15-5.02c2.09-3.34,4.2-6.71,6.34-10.13     c1.09-1.68,2.18-3.37,3.29-5.07c0.56-0.84,1.13-1.68,1.69-2.52c0.55-0.81,1.2-1.77,1.75-2.63c0.36-0.55,0.71-1.1,1.07-1.65     c0.35-0.52,0.72-1.05,1.14-1.55c0.81-1.01,1.8-1.97,3.04-2.6c0.63-0.28,1.3-0.5,2.01-0.56c0.13-0.05,0.21,0.03,0.29,0.11     c0.08,0.07,0.16,0.15,0.23,0.23c0.15,0.16,0.28,0.34,0.39,0.53c0.22,0.38,0.35,0.81,0.43,1.24c0.15,0.87,0.09,1.77,0.08,2.68     c-0.01,1.94,0.07,3.29,0.15,6.6c0.04,1.81,0.09,3.73,0.07,5.59c-0.04,1.89,0.09,3.72,0.29,5.19c0.2,1.48,0.34,2.8,0.97,4.08     c0.32,0.64,0.81,1.25,1.47,1.7c0.66,0.45,1.45,0.71,2.23,0.9c1.35,0.28,2.8,0.12,3.89-0.55c1.09-0.65,1.9-1.55,2.66-2.54     c0.76-0.99,1.48-2.12,2.28-3.41c0.82-1.29,1.64-2.76,2.5-4.02l1.27-1.9l1.01-1.59c0.66-1.07,1.29-2.19,1.87-3.34     c0.57-1.13,1.1-2.38,1.51-3.53c0.3-0.87,0.57-1.74,0.9-2.61c0.65-1.72,1.42-3.42,2.39-5.01c0.49-0.79,1-1.57,1.65-2.25     c0.31-0.34,0.69-0.65,1.14-0.77c0.48-0.14,0.91,0.22,1.15,0.58c0.5,0.77,0.74,1.68,0.97,2.56c0.23,0.89,0.42,1.79,0.63,2.69     c0.21,0.9,0.43,1.79,0.73,2.67c0.16,0.45,0.3,0.84,0.56,1.3l0.09,0.17l0.16,0.25c0.12,0.17,0.2,0.33,0.35,0.5     c0.14,0.17,0.27,0.33,0.43,0.5c0.18,0.16,0.36,0.32,0.55,0.47l1.29,1.05l1.07-1.38c1.13-1.47,1.91-3.13,2.47-4.74     c0.56-1.61,0.96-3.19,1.41-4.66c0.45-1.48,0.96-2.81,1.69-4.05c0.72-1.25,1.63-2.4,2.65-3.51c1.02-1.11,2.14-2.17,3.28-3.26     c1.22-1.15,2.03-1.92,3.09-2.5c0.53-0.28,1.1-0.5,1.7-0.55c0.6-0.06,1.2,0.08,1.75,0.3c1.11,0.47,1.99,1.25,2.88,2.18     c0.84,0.91,1.52,2.16,2.19,3.51c0.7,1.37,1.29,2.78,2.48,4.44c1.12,1.54,2.63,2.85,4.48,3.36c1.81,0.52,3.81,0.52,5.56-0.22     c1.75-0.71,3.23-2.07,4.38-3.5c1.05-1.29,1.89-2.61,2.72-3.82l0.61-0.87c0.15-0.21,0.32-0.44,0.49-0.65     c0.34-0.42,0.71-0.83,1.12-1.17c0.81-0.71,1.97-1.03,3-0.72c0.8,0.22,1.53,0.64,2.24,1.04c0.98,0.53,2.07,1.18,3.5,1.62     c2.52,0.73,4.98,0.88,7.29,0.93c1.09,0.03,2.43,0.03,3.67-0.11c1.27-0.15,2.53-0.46,3.71-0.87c2.39-0.83,4.35-1.99,6.21-2.82     c0.93-0.43,1.85-0.8,2.79-1.11c0.45-0.15,0.96-0.31,1.48-0.47l1.54-0.47c2.05-0.61,4.08-1.22,6.1-1.82     c4.03-1.18,8.01-2.31,11.91-3.35c15.62-4.2,30.19-7.18,43.22-8.89c6.55-0.87,12.78-1.62,18.58-2.57     c5.8-0.94,11.15-2.09,15.95-3.5c4.86-1.42,9.03-3.19,12.51-4.91c3.48-1.72,6.28-3.4,8.45-4.78     C671.34,315.37,673.97,313.18,676.51,310.94z"/>
		</g>
	</g>
</g>
<g>
	<g>
		<g>
			<path d="M430.1,464.38c10.27-3.07,32.35-11.02,55.77-18.96c23.41-7.97,48.19-15.89,63.34-20.28c11.64-3.5,20.54-6.06,27.25-7.86     c5.66-1.5-7.4,2.09-27.25,7.86c-8.84,2.69-19.26,5.93-31.48,9.88c15.4-4.37,30.25-8.33,40.94-11c7.72-2.37,15.54-4.7,23.51-7.01     c8.76-2.54,17.47-5.02,26.15-7.42c8.68-2.38,17.36-4.59,26.06-6.73c17.38-4.29,34.8-8.33,52.28-13.06     c5.45-1.47,13.63-3.81,22.19-6.63l2.42-0.8l-1.71-1.9c-1.12-1.24-2.56-2.35-4.24-2.95c-1.67-0.62-3.48-0.73-5.13-0.53     c-0.83,0.1-1.63,0.27-2.4,0.49c-0.4,0.1-0.74,0.23-1.1,0.34c-0.2,0.06-0.33,0.11-0.45,0.16l-0.38,0.15     c-0.25,0.1-0.53,0.03-0.8,0.05l-0.94,0c-0.7,0-1.39,0.01-2.08,0.01c-5.48,0.04-10.4,0.09-14.04,0.12     c5.23-0.17,10.46-0.28,15.69-0.34l1.7-0.02c0.24,0.03,0.46-0.06,0.68-0.16l0.34-0.13l0.49-0.17c1.32-0.45,2.82-0.79,4.36-0.86     c1.55-0.07,3.19,0.19,4.69,0.83c1.49,0.65,2.79,1.66,3.82,2.8l2.02,2.24l-2.86,0.95c-20.34,6.74-41.1,11.89-61.79,16.97     c-10.35,2.55-20.69,5.09-30.97,7.82c-10.27,2.73-20.51,5.7-30.73,8.67c1.39-0.36,2.78-0.72,4.15-1.08     c6.7-1.91,13.42-3.78,20.14-5.59c6.72-1.8,13.46-3.51,20.23-5.17c13.53-3.32,27.12-6.46,40.68-9.87c4.6-1.2,9.25-2.41,14.03-3.66     c-4.67,1.26-9.35,2.47-14.03,3.66c-12.01,3.1-23.68,6.12-36.75,9.5c-8.08,1.99-17.35,4.11-25.37,6.32     c-6.55,1.79-12.66,3.19-18.93,4.8l-12,3.45c-1.16,0.37-2.4,0.77-3.67,1.18c0.05-0.01,0.13-0.02,0.16-0.03     c2.59-0.37,10.85-2.44,22.07-5.28c5.62-1.4,11.97-3.04,18.71-4.67c6.75-1.64,13.93-3.29,21.18-4.94     c14.49-3.29,29.27-6.62,41.43-9.71c12.17-3.08,21.71-5.94,25.89-7.34c2.2-0.75,4.36-1.52,6.5-2.31l7.1-2.6l-5.04-5.26     c-1.41-1.47-3.25-2.83-5.4-3.54c-2.13-0.76-4.35-0.83-6.29-0.57c-0.97,0.14-1.89,0.35-2.76,0.63c-0.43,0.14-0.88,0.28-1.22,0.43     l-0.56,0.22c-0.13,0.06-0.15,0.08-0.24,0.12l-0.21,0.11l-0.23,0.03l-0.23,0.03l-0.12,0.02l-0.26,0.02     c-0.72,0.05-1.44,0.1-2.17,0.14c-5.8,0.39-11.8,0.81-18.28,1.14c-5.19,0.26-9.59,0.15-13.55,0.68c-0.38,0.21-2.36,0.48-4.35,0.75     c-10.24,0.72-20.59,0.48-28.48,1.45c-5.54,0.51-21.17-1.89-22.33-1.25c-4.24,2.34-1.15,0.63-14.27,1.09     c-1.59,0.03-6.7,1.16-9.88,1.23c-10.74,0.05-13.88,0.94-26.16,1.95c-18.2,1.9-22.31,0.85-38.44,3.63     c-0.98,0.13-7.78,1.05-14.34,1.94c-6.55,0.92-12.85,1.81-12.85,1.81c-19.79,1.99-31.85,4.67-47.42,5.32     c-17.53,3.74-41.31,5.95-60.07,9.49c-18.75,3.58-26.73,3.95-43.33,6.12c-4.72,0.74-8.21,1.52-11,1.77     c-2.8,0.25-9.27,2.37-13.98,3.2l1.05-0.81c-1.58,0.28-4.71,0.84-6.29,1.11c-1.57,0.28-1.22,0.01-0.87-0.26     c0.7-0.54,1.4-1.09-1.4-0.79c-6.6,1.06-13.33,2.31-20.2,3.75c-6.68,1.87-13.23,3.87-19.65,5.95c-0.31,0.35-0.68,0.73-1.54,1.19     c-1.9,0.67-3.79,1.34-5.67,2.01c-1,0.88-0.44,1.38-1.11,1.97c0.44,1.58-7.12,5.42-4.78,6.3c0.44,0.1,3.43-0.61,6.96-1.43     c3.54-0.77,7.6-1.68,10.19-1.94c1.21-0.07-1.33,1.14-2.32,2.01c6.49-1.7,7.02-1.19,4.49,0.02c1.54-0.35,3.07-0.7,3.07-0.7     c-0.33,0.29-1.33,1.15-1.33,1.15c16.58-3.55,35.33-6.23,51.46-10.14c3.47-0.79,9.2-2.35,13.03-3.37     c1.91-0.51,6.25-0.99,7.82-1.22c2.63-1.03,2.12-1.57,3.18-2.36c6.1-0.83,15.73-2.18,23.7-3.55c7.95-1.36,14.24-2.71,13.67-3.67     c9.77-1.58,11.56-2.86,21.72-4.6c13.44-2.34,30.55-5,47.46-7.32c9.24-1.34,18.14-2.42,27.15-3.44c3.36-0.38,6.62-0.75,9.73-1.1     c16.83-1.86,32.6-3.21,47.81-4.22c15.21-1,29.87-1.71,44.48-2.37c14.61-0.67,29.19-1.28,44.24-2.09     c7.53-0.41,15.16-0.86,23.02-1.4c7.85-0.61,15.77-1.22,24.02-1.72c5.41-0.34,10.85-0.6,16.31-0.79l2.12-0.07l1.36-0.04     c0.44-0.09,0.84-0.32,1.27-0.48c0.68-0.27,1.22-0.45,1.78-0.61c0.56-0.14,1.11-0.26,1.66-0.31c2.19-0.26,4.05,0.46,5.58,2.08     l0.92-3.5c-29.09,10.23-59.56,16.89-88.38,24.39c-7.21,1.87-14.33,3.82-21.3,5.79c-6.98,1.96-13.85,3.9-20.57,5.85     c-13.46,3.89-26.37,7.73-38.55,11.45c-48.74,14.9-85.82,27.94-100.02,33.18L430.1,464.38z"/>
		</g>
	</g>
</g>
</svg>